PathFileType	4	(X/Y/Z)	C:\Users\italobelli\Desktop\GitHub\PTbot_officialCBL\Personal_Results\ABD22_noisy2.trc
DataRate	CameraRate	NumFrames	NumMarkers	Units	OrigDataRate	OrigDataStartFrame	OrigNumFrames
106.125000	106.125000	38	9	m	106.125000	426	850
Frame#	Time		gu		centelbow		EpL		centpxt8		centijc7		ij		ts		aa		ai
			X1	Y1	Z1	X2	Y2	Z2	X3	Y3	Z3	X4	Y4	Z4	X5	Y5	Z5	X6	Y6	Z6	X7	Y7	Z7	X8	Y8	Z8	X9	Y9	Z9

426	4.0047	-0.11841	0.068666	0.093359	-0.052083	0.28096	0.18861	-0.07269	0.29169	0.16625	-0.046816	-0.15316	-0.008669	-0.046816	0.031938	-0.008669	0	0	0	-0.14609	-0.020414	0.049139	-0.15726	0.090216	0.092279	-0.14445	-0.056595	0.15672
427	4.0141	-0.11844	0.068689	0.093328	-0.052243	0.28072	0.18888	-0.072816	0.29147	0.16651	-0.046816	-0.15316	-0.008669	-0.046816	0.031938	-0.008669	0	0	0	-0.14603	-0.020421	0.049063	-0.15728	0.090176	0.092263	-0.14446	-0.056694	0.15663
428	4.0236	-0.11847	0.068717	0.093303	-0.052424	0.28046	0.18919	-0.072962	0.29125	0.16679	-0.046816	-0.15316	-0.008669	-0.046816	0.031938	-0.008669	0	0	0	-0.14594	-0.020426	0.048985	-0.15729	0.090132	0.092254	-0.14446	-0.056801	0.15652
429	4.033	-0.11849	0.068748	0.093285	-0.052625	0.2802	0.18954	-0.073126	0.29101	0.16711	-0.046816	-0.15316	-0.008669	-0.046816	0.031938	-0.008669	0	0	0	-0.14585	-0.020428	0.048904	-0.15731	0.090085	0.092251	-0.14446	-0.056915	0.15641
430	4.0424	-0.11852	0.068783	0.093272	-0.052846	0.27992	0.18991	-0.073308	0.29078	0.16746	-0.046816	-0.15316	-0.008669	-0.046816	0.031938	-0.008669	0	0	0	-0.14573	-0.020427	0.048819	-0.15733	0.090033	0.092255	-0.14445	-0.057037	0.15629
431	4.0518	-0.11855	0.068821	0.093266	-0.053085	0.27964	0.19032	-0.073508	0.29053	0.16784	-0.046816	-0.15316	-0.008669	-0.046816	0.031938	-0.008669	0	0	0	-0.1456	-0.020424	0.048732	-0.15735	0.089979	0.092264	-0.14444	-0.057165	0.15616
432	4.0612	-0.11857	0.068862	0.093265	-0.053341	0.27935	0.19075	-0.073724	0.29028	0.16825	-0.046816	-0.15316	-0.008669	-0.046816	0.031938	-0.008669	0	0	0	-0.14546	-0.020418	0.048642	-0.15736	0.089921	0.092279	-0.14443	-0.057301	0.15603
433	4.0707	-0.1186	0.068906	0.09327	-0.053615	0.27905	0.19122	-0.073955	0.29003	0.16869	-0.046816	-0.15316	-0.008669	-0.046816	0.031938	-0.008669	0	0	0	-0.1453	-0.02041	0.048549	-0.15738	0.089859	0.0923	-0.14442	-0.057444	0.15589
434	4.0801	-0.11862	0.068953	0.09328	-0.053905	0.27874	0.19171	-0.074202	0.28976	0.16916	-0.046816	-0.15316	-0.008669	-0.046816	0.031938	-0.008669	0	0	0	-0.14513	-0.020399	0.048453	-0.15739	0.089795	0.092326	-0.14441	-0.057593	0.15574
435	4.0895	-0.11865	0.069002	0.093296	-0.054211	0.27842	0.19224	-0.074463	0.2895	0.16966	-0.046816	-0.15316	-0.008669	-0.046816	0.031938	-0.008669	0	0	0	-0.14495	-0.020386	0.048355	-0.15741	0.089727	0.092358	-0.14439	-0.057749	0.15558
436	4.0989	-0.11867	0.069055	0.093317	-0.054531	0.27809	0.19279	-0.074737	0.28922	0.17019	-0.046816	-0.15316	-0.008669	-0.046816	0.031938	-0.008669	0	0	0	-0.14475	-0.02037	0.048253	-0.15743	0.089656	0.092396	-0.14437	-0.057911	0.15542
437	4.1084	-0.1187	0.069109	0.093343	-0.054865	0.27776	0.19337	-0.075024	0.28894	0.17074	-0.046816	-0.15316	-0.008669	-0.046816	0.031938	-0.008669	0	0	0	-0.14455	-0.020353	0.048149	-0.15744	0.089582	0.092439	-0.14435	-0.05808	0.15525
438	4.1178	-0.11872	0.069167	0.093374	-0.055212	0.27741	0.19398	-0.075323	0.28866	0.17133	-0.046816	-0.15316	-0.008669	-0.046816	0.031938	-0.008669	0	0	0	-0.14434	-0.020333	0.048043	-0.15746	0.089506	0.092487	-0.14432	-0.058254	0.15508
439	4.1272	-0.11874	0.069226	0.09341	-0.055572	0.27706	0.19461	-0.075634	0.28837	0.17194	-0.046816	-0.15316	-0.008669	-0.046816	0.031938	-0.008669	0	0	0	-0.14411	-0.020311	0.047933	-0.15747	0.089426	0.09254	-0.14429	-0.058434	0.1549
440	4.1366	-0.11877	0.069287	0.09345	-0.055944	0.2767	0.19527	-0.075955	0.28807	0.17257	-0.046816	-0.15316	-0.008669	-0.046816	0.031938	-0.008669	0	0	0	-0.14388	-0.020287	0.047822	-0.15748	0.089344	0.092597	-0.14427	-0.05862	0.15471
441	4.1461	-0.11879	0.069351	0.093496	-0.056326	0.27633	0.19595	-0.076286	0.28777	0.17324	-0.046816	-0.15316	-0.008669	-0.046816	0.031938	-0.008669	0	0	0	-0.14364	-0.020261	0.047707	-0.1575	0.089259	0.09266	-0.14423	-0.058811	0.15451
442	4.1555	-0.11881	0.069416	0.093545	-0.056719	0.27595	0.19666	-0.076626	0.28747	0.17392	-0.046816	-0.15316	-0.008669	-0.046816	0.031938	-0.008669	0	0	0	-0.1434	-0.020234	0.047591	-0.15751	0.089172	0.092727	-0.1442	-0.059007	0.15431
443	4.1649	-0.11883	0.069483	0.093599	-0.057121	0.27557	0.1974	-0.076974	0.28715	0.17464	-0.046816	-0.15316	-0.008669	-0.046816	0.031938	-0.008669	0	0	0	-0.14314	-0.020204	0.047471	-0.15752	0.089082	0.092799	-0.14417	-0.059209	0.15411
444	4.1743	-0.11885	0.069551	0.093657	-0.057531	0.27518	0.19815	-0.07733	0.28684	0.17538	-0.046816	-0.15316	-0.008669	-0.046816	0.031938	-0.008669	0	0	0	-0.14289	-0.020173	0.04735	-0.15754	0.08899	0.092875	-0.14413	-0.059415	0.1539
445	4.1837	-0.11887	0.069621	0.093719	-0.057949	0.27478	0.19893	-0.077693	0.28652	0.17614	-0.046816	-0.15316	-0.008669	-0.046816	0.031938	-0.008669	0	0	0	-0.14262	-0.020139	0.047226	-0.15755	0.088895	0.092956	-0.14409	-0.059626	0.15368
446	4.1932	-0.11889	0.069692	0.093784	-0.058375	0.27437	0.19974	-0.078062	0.28619	0.17692	-0.046816	-0.15316	-0.008669	-0.046816	0.031938	-0.008669	0	0	0	-0.14235	-0.020105	0.0471	-0.15756	0.088798	0.093041	-0.14405	-0.059842	0.15346
447	4.2026	-0.1189	0.069764	0.093854	-0.058807	0.27396	0.20056	-0.078436	0.28586	0.17773	-0.046816	-0.15316	-0.008669	-0.046816	0.031938	-0.008669	0	0	0	-0.14208	-0.020068	0.046971	-0.15757	0.088699	0.09313	-0.14401	-0.060062	0.15323
448	4.212	-0.11892	0.069838	0.093927	-0.059244	0.27354	0.20141	-0.078815	0.28552	0.17856	-0.046816	-0.15316	-0.008669	-0.046816	0.031938	-0.008669	0	0	0	-0.14181	-0.02003	0.046841	-0.15758	0.088598	0.093222	-0.14397	-0.060287	0.15299
449	4.2214	-0.11893	0.069912	0.094003	-0.059686	0.27311	0.20227	-0.079198	0.28518	0.17942	-0.046816	-0.15316	-0.008669	-0.046816	0.031938	-0.008669	0	0	0	-0.14153	-0.019991	0.046708	-0.15759	0.088495	0.093319	-0.14392	-0.060515	0.15275
450	4.2309	-0.11895	0.069987	0.094083	-0.060132	0.27268	0.20316	-0.079584	0.28484	0.18029	-0.046816	-0.15316	-0.008669	-0.046816	0.031938	-0.008669	0	0	0	-0.14126	-0.01995	0.046573	-0.1576	0.08839	0.093419	-0.14387	-0.060747	0.15251
451	4.2403	-0.11896	0.070062	0.094166	-0.060582	0.27224	0.20407	-0.079973	0.28449	0.18119	-0.046816	-0.15316	-0.008669	-0.046816	0.031938	-0.008669	0	0	0	-0.14098	-0.019907	0.046436	-0.15761	0.088284	0.093523	-0.14383	-0.060983	0.15226
452	4.2497	-0.11897	0.070138	0.094252	-0.061034	0.27179	0.20499	-0.080364	0.28413	0.1821	-0.046816	-0.15316	-0.008669	-0.046816	0.031938	-0.008669	0	0	0	-0.1407	-0.019864	0.046297	-0.15762	0.088175	0.09363	-0.14378	-0.061222	0.15201
453	4.2591	-0.11898	0.070215	0.094341	-0.061487	0.27134	0.20594	-0.080755	0.28377	0.18304	-0.046816	-0.15316	-0.008669	-0.046816	0.031938	-0.008669	0	0	0	-0.14043	-0.019819	0.046155	-0.15763	0.088065	0.093741	-0.14373	-0.061465	0.15175
454	4.2686	-0.11899	0.070291	0.094432	-0.061942	0.27087	0.2069	-0.081147	0.28341	0.184	-0.046816	-0.15316	-0.008669	-0.046816	0.031938	-0.008669	0	0	0	-0.14015	-0.019773	0.046012	-0.15763	0.087953	0.093855	-0.14368	-0.061711	0.15148
455	4.278	-0.119	0.070368	0.094526	-0.062397	0.27041	0.20788	-0.081538	0.28304	0.18497	-0.046816	-0.15316	-0.008669	-0.046816	0.031938	-0.008669	0	0	0	-0.13988	-0.019726	0.045867	-0.15764	0.08784	0.093972	-0.14362	-0.06196	0.15121
456	4.2874	-0.11901	0.070445	0.094623	-0.062851	0.26994	0.20888	-0.081928	0.28267	0.18597	-0.046816	-0.15316	-0.008669	-0.046816	0.031938	-0.008669	0	0	0	-0.13961	-0.019678	0.04572	-0.15765	0.087726	0.094091	-0.14357	-0.062211	0.15094
457	4.2968	-0.11901	0.070521	0.094722	-0.063304	0.26946	0.20989	-0.082316	0.2823	0.18698	-0.046816	-0.15316	-0.008669	-0.046816	0.031938	-0.008669	0	0	0	-0.13934	-0.019629	0.045572	-0.15765	0.08761	0.094214	-0.14351	-0.062465	0.15066
458	4.3062	-0.11902	0.070597	0.094823	-0.063755	0.26897	0.21092	-0.082702	0.28192	0.18801	-0.046816	-0.15316	-0.008669	-0.046816	0.031938	-0.008669	0	0	0	-0.13908	-0.019579	0.045421	-0.15766	0.087493	0.094339	-0.14346	-0.062722	0.15038
459	4.3157	-0.11902	0.070673	0.094926	-0.064203	0.26848	0.21196	-0.083084	0.28153	0.18906	-0.046816	-0.15316	-0.008669	-0.046816	0.031938	-0.008669	0	0	0	-0.13882	-0.019528	0.045269	-0.15766	0.087375	0.094467	-0.1434	-0.062981	0.15009
460	4.3251	-0.11902	0.070748	0.095031	-0.064648	0.26799	0.21302	-0.083461	0.28114	0.19012	-0.046816	-0.15316	-0.008669	-0.046816	0.031938	-0.008669	0	0	0	-0.13857	-0.019476	0.045115	-0.15766	0.087256	0.094598	-0.14335	-0.063242	0.1498
461	4.3345	-0.11902	0.070822	0.095138	-0.065088	0.26749	0.21409	-0.083834	0.28075	0.1912	-0.046816	-0.15316	-0.008669	-0.046816	0.031938	-0.008669	0	0	0	-0.13833	-0.019423	0.044959	-0.15767	0.087136	0.094731	-0.14329	-0.063505	0.14951
462	4.3439	-0.11902	0.070895	0.095247	-0.065523	0.26698	0.21517	-0.084202	0.28036	0.19229	-0.046816	-0.15316	-0.008669	-0.046816	0.031938	-0.008669	0	0	0	-0.13809	-0.01937	0.044802	-0.15767	0.087015	0.094866	-0.14323	-0.063769	0.14921
463	4.3534	-0.11901	0.070968	0.095357	-0.065952	0.26647	0.21627	-0.084563	0.27996	0.1934	-0.046816	-0.15316	-0.008669	-0.046816	0.031938	-0.008669	0	0	0	-0.13786	-0.019316	0.044643	-0.15767	0.086893	0.095003	-0.14317	-0.064035	0.14891
